<svg xmlns="http://www.w3.org/2000/svg" width="799" height="260" viewBox="0 0 799 260">
  <defs>
    <style>
      .cls-1 {
        fill-rule: evenodd;
      }
    </style>
  </defs>
  <g id="Tekengebied_1" data-name="Tekengebied 1">
    <g id="V02">
      <path id="Split" class="cls-1" d="M344.081,408.975a1.237,1.237,0,0,0,1.321,1.469,3,3,0,0,0,.734-0.1q-0.783,2.055-1.615,3.867-3.23,7.293-3.916,9.055-5.481,14.537-5.481,21.78a10.017,10.017,0,0,0,1.223,5.335,4.562,4.562,0,0,0,3.965,2.35q3.229,0,6.314-3.182a38.9,38.9,0,0,0,5.971-8.614q7.146-13.314,7.146-25.305a16.751,16.751,0,0,0-1.664-7.831,8.7,8.7,0,0,0-4.16-3.622q6.852-4.453,11.747-4.454a3.953,3.953,0,0,1,1.762.342,9.135,9.135,0,0,0,3.279,1.371,2.321,2.321,0,0,0,1.909-.93,2.142,2.142,0,0,0,.538-1.42,3.379,3.379,0,0,0-1.517-2.692,5.94,5.94,0,0,0-3.72-1.125q-3.084,0-10.915,2.985a142.694,142.694,0,0,1,19.578-29.563q1.713-2.005,1.714-3.083a1.544,1.544,0,0,0-.686-1.322,1.5,1.5,0,0,0-1.028-.391q-1.566,0-3.768,2.2a77.591,77.591,0,0,0-8.027,9.985,170.94,170.94,0,0,0-14.635,26.284q-6.07,4.014-6.069,6.607h0Zm10.229,1.567a9.034,9.034,0,0,1,1.42,5.531q0,9.447-5.58,20.8-4.944,10.18-7.978,10.181a1.96,1.96,0,0,1-1.615-.979,4.041,4.041,0,0,1-.637-2.251q0-6.51,4.65-18.306a176.955,176.955,0,0,1,7.244-16.739,7.755,7.755,0,0,1,2.5,1.762h0Zm28.254-6.9q2.4-3.033,2.594-3.279a4.017,4.017,0,0,0,.979-2.056,1.49,1.49,0,0,0-.636-1.223,1.959,1.959,0,0,0-1.175-.392q-1.91,0-4.748,3.671-4.6,5.923-8.81,16.69-2.838,7.245-2.839,8.909a1.559,1.559,0,0,0,1.811,1.713q1.665,0,2.79-2.252a68.085,68.085,0,0,1,6.02-10.132q5.238-6.656,9.1-9.4a5.272,5.272,0,0,0-1.028,2.79,2.627,2.627,0,0,0,1.126,2.447,5.311,5.311,0,0,0,2.888.832q3.865,0,8.174-3.23,4.111-3.034,4.111-4.5a1.308,1.308,0,0,0-.44-0.93,1.131,1.131,0,0,0-.783-0.392,2.855,2.855,0,0,0-1.469.588q-5.139,3.475-7.244,3.475a1.064,1.064,0,0,1-1.272-1.126q0-2.007,4.992-5.971,1.86-1.517,1.86-2.4a1.857,1.857,0,0,0-.44-1.077,1.967,1.967,0,0,0-1.469-1.076,5,5,0,0,0-1.615.734,45.946,45.946,0,0,0-4.8,3.279,95.467,95.467,0,0,0-11.061,10.034,25.785,25.785,0,0,1,3.377-5.727h0Zm31.964-6.558a27.039,27.039,0,0,0-2.644,3.475,67.923,67.923,0,0,0-7.929,14.488q-3.132,8.32-3.132,9.789a2.085,2.085,0,0,0,.538,1.37,1.859,1.859,0,0,0,1.566.783q1.665,0,2.448-2.447a108.91,108.91,0,0,1,4.062-10.768,90.329,90.329,0,0,1,7.244-12.97,6.6,6.6,0,0,0,1.42-2.937,1.826,1.826,0,0,0-.392-1.077,1.717,1.717,0,0,0-1.37-.636,2.523,2.523,0,0,0-1.811.93h0Zm7.684-17.131q-2.595,2.643-2.594,4.992a2.223,2.223,0,0,0,.587,1.566,1.9,1.9,0,0,0,1.518.686q1.908,0,3.964-2.4a7.312,7.312,0,0,0,2.154-4.552,1.969,1.969,0,0,0-2.2-2.251q-1.518,0-3.426,1.958h0Zm16.463,25.3q2.4-3.769,2.4-6.363A3.3,3.3,0,0,0,439.8,396.2a3.7,3.7,0,0,0-2.3-.783q-4.7,0-11.012,6.46-7.784,7.929-7.783,16.2a7.436,7.436,0,0,0,1.42,4.8,7.09,7.09,0,0,0,5.775,2.545,16.4,16.4,0,0,0,7.734-2.251,35.378,35.378,0,0,0,7.831-5.825q4.7-4.551,4.7-6.461a1.418,1.418,0,0,0-1.273-1.272q-0.98,0-2.4,1.615-8.028,9.4-14.145,9.4a4.49,4.49,0,0,1-4.014-1.811,3.2,3.2,0,0,1-.538-1.86v-0.881q9.935-2.985,14.879-10.817h0Zm-6.8-2.79q2.349-1.91,3.622-1.909a0.845,0.845,0,0,1,.93.979,4.083,4.083,0,0,1-.735,2.1,21.74,21.74,0,0,1-5.432,5.972,19.694,19.694,0,0,1-5.384,2.643,25.036,25.036,0,0,1,7-9.789h0Zm30.743,0.783a6.24,6.24,0,0,0,1.42-3.084,2.156,2.156,0,0,0-.686-1.566,1.73,1.73,0,0,0-1.223-.587q-1.321,0-3.182,2.692-1.86,2.74-5.09,8.81-6.021,11.208-6.02,13.851a2.385,2.385,0,0,0,.685,1.763,1.779,1.779,0,0,0,1.37.587q1.665,0,3.133-2.594,5.727-10.816,12.383-15.075-4.992,8.026-4.992,14.634a11.913,11.913,0,0,0,1.321,5.825q1.37,2.544,3.377,2.545a2.005,2.005,0,0,0,1.518-.685,1.544,1.544,0,0,0,.587-1.126,3.813,3.813,0,0,0-.685-1.762,9.837,9.837,0,0,1-1.469-5.139q0-8.321,9.349-19.236a5.8,5.8,0,0,0,1.713-3.475q0-2.1-1.909-2.105-3.475,0-13.7,9.985-0.588.588-1.224,1.175a52.436,52.436,0,0,1,3.328-5.433h0Zm32.421-7.587q-6.363,0-11.893,7.636-5.58,7.734-5.58,15.369a9.473,9.473,0,0,0,1.077,4.552q1.614,3.035,4.307,3.034,4.649,0,9.789-9.25,0.195,2.935.343,4.013a7.96,7.96,0,0,0,2.349,4.5,3.792,3.792,0,0,0,2.5,1.371,2.283,2.283,0,0,0,1.689-.808,2.555,2.555,0,0,0,.758-1.787,1.248,1.248,0,0,0-.293-0.978,9.7,9.7,0,0,1-1.762-1.567,7.854,7.854,0,0,1-1.077-4.4q0-6.852,6.852-20.606,5.922-11.795,13.02-23.249,1.663-2.643,1.664-3.769a1.992,1.992,0,0,0-.587-1.37,1.97,1.97,0,0,0-1.42-.637q-1.469,0-3.132,2.105a95.649,95.649,0,0,0-5.727,9.251q-4.357,7.587-9.251,17.816a6.6,6.6,0,0,0-3.622-1.224h0Zm1.665,5.874-0.441.93q-0.93,2.055-1.909,4.111A58.926,58.926,0,0,1,488.282,417q-2.448,3.329-4.161,3.328a1.882,1.882,0,0,1-1.762-1.224,3.237,3.237,0,0,1-.293-1.37q0-6.118,4.845-12.677,3.672-5.041,7.783-5.042a4.355,4.355,0,0,1,2.3.881Zm24.373,2.692a118.089,118.089,0,0,0,13.117-14.194q12.237-15.957,12.237-22.809a3.84,3.84,0,0,0-.979-2.594,2.969,2.969,0,0,0-2.4-1.126q-4.6,0-11.6,9.2-8.763,11.452-17.18,29.122a119.645,119.645,0,0,0-4.944,11.8,25.235,25.235,0,0,0-1.664,7.587,4.486,4.486,0,0,0,.832,2.741,3.628,3.628,0,0,0,3.035,1.566q4.306,0,9.348-6.7,4.846-6.413,4.846-8.517a1.1,1.1,0,0,0-1.273-1.224q-1.126,0-2.153,1.665a60.523,60.523,0,0,1-3.916,5.824q-2.79,3.328-4.552,3.328a1.06,1.06,0,0,1-1.175-1.223,13.215,13.215,0,0,1,.735-3.28q0.734-2.349,2.2-6.167,3.476-3.132,5.482-4.992h0Zm9.642-24.326q7.1-10.719,9.789-10.719a0.892,0.892,0,0,1,.93,1.076q0,2.253-4.16,9.153a89.387,89.387,0,0,1-18.208,22.026A153.294,153.294,0,0,1,530.716,379.9h0Zm14.828,39.107q-1.81,3.72-2.692,5.972-1.421.88-3.915,2.3a94.468,94.468,0,0,0-9.3,5.874q-10.719,7.977-10.719,15.613a6.875,6.875,0,0,0,1.419,4.454,5.8,5.8,0,0,0,4.8,2.3q7.293,0,14.145-11.992a155.838,155.838,0,0,0,7.783-16.4,47.152,47.152,0,0,0,13.019-10.474q4.405-5.139,4.4-7.733a1.211,1.211,0,0,0-1.37-1.371q-0.98,0-1.909,1.958-0.98,2.154-5.384,6.559a26.792,26.792,0,0,1-5.727,4.454,76.949,76.949,0,0,1,4.748-9.789q1.957-3.525,4.307-7.587,1.958-3.329,1.958-4.748a2.1,2.1,0,0,0-.587-1.468,1.906,1.906,0,0,0-1.42-.685,3.943,3.943,0,0,0-2.741,1.713q-0.636.685-3.377,4.356-3.036,4.161-3.426,4.65-1.909,2.3-5.286,5.677-5.385,5.335-7.342,5.335a0.887,0.887,0,0,1-.979-1.027q0-1.762,2.692-5.58a50.429,50.429,0,0,1,5.139-6.265,45.068,45.068,0,0,0,3.206-3.6,3.212,3.212,0,0,0,.563-1.884,1.745,1.745,0,0,0-.538-1.273,1.765,1.765,0,0,0-1.371-.685q-2.84,0-9.2,8.908-6.264,8.762-6.265,14.048a3.963,3.963,0,0,0,.735,2.447,3.207,3.207,0,0,0,2.643,1.223q3.424,0,8.565-4.894,2.593-2.5,6.95-7.636-1.516,3.231-3.524,7.244h0Zm-7,15.222q-3.279,7.2-4.014,8.468-4.452,7.683-8.124,7.684a2.4,2.4,0,0,1-2.448-2.447q0-4.356,5.482-9.4A50.061,50.061,0,0,1,540.062,431q-0.833,1.763-1.517,3.23h0Zm25.863-1.719v4.65h46.509v-4.65H564.408Zm133.539-52.836a32.287,32.287,0,0,0-7.328-9.408,48.387,48.387,0,0,0-10.354-6.95q-5.814-2.929-11.866-5.39t-11.867-4.775A64.569,64.569,0,0,1,646.179,348a27.716,27.716,0,0,1-7.328-6.429,13.609,13.609,0,0,1-2.79-8.605,15.1,15.1,0,0,1,6.808-12.954q6.808-4.821,21.275-4.822a95.628,95.628,0,0,1,14.088,1.087,114.942,114.942,0,0,1,14.562,3.168V304.316q-3.12-.754-6.761-1.418t-7.375-1.182q-3.736-.518-7.375-0.8t-6.761-.284a65.905,65.905,0,0,0-20.849,2.931,42.625,42.625,0,0,0-14.325,7.706,29.887,29.887,0,0,0-8.226,10.921,31.289,31.289,0,0,0-2.648,12.481,26.63,26.63,0,0,0,2.79,12.576,31.424,31.424,0,0,0,7.328,9.219,49.037,49.037,0,0,0,10.353,6.808q5.815,2.885,11.867,5.342t11.866,4.775a67.528,67.528,0,0,1,10.354,5.106,27.51,27.51,0,0,1,7.328,6.335,13.427,13.427,0,0,1,2.789,8.557,19.476,19.476,0,0,1-1.654,8.226,15.015,15.015,0,0,1-5.295,6.1,26.666,26.666,0,0,1-9.361,3.782,64.6,64.6,0,0,1-13.852,1.277,119.907,119.907,0,0,1-20.093-1.513,87.905,87.905,0,0,1-15.932-4.161V423.36q3.213,0.851,7.186,1.607t8.462,1.324q4.489,0.567,9.361.945t9.786,0.378a85.067,85.067,0,0,0,19.9-2.174,46.383,46.383,0,0,0,15.459-6.572,31.311,31.311,0,0,0,10.023-11.015,31.813,31.813,0,0,0,3.593-15.413A27.45,27.45,0,0,0,697.947,379.676Zm87.358-22.457a45.446,45.446,0,0,0-6.241-14.939,29.649,29.649,0,0,0-10.306-9.6,28.988,28.988,0,0,0-14.278-3.4,39.133,39.133,0,0,0-17.4,3.924q-8.037,3.924-15.128,13.663l-1.04-15.885H706.258v133.7H722.71V424.967a68.67,68.67,0,0,0,9.124,1.607,86.257,86.257,0,0,0,9.03.473,53.161,53.161,0,0,0,18.438-3.12,40.115,40.115,0,0,0,14.751-9.361,43.346,43.346,0,0,0,9.786-15.7,62.888,62.888,0,0,0,3.546-22.125A84.627,84.627,0,0,0,785.305,357.219ZM762.99,404.685q-7.566,9.031-20.9,9.03a46.282,46.282,0,0,1-9.834-1.087,55,55,0,0,1-9.55-2.979V363.6a96.653,96.653,0,0,1,8.179-9.5,49.64,49.64,0,0,1,7.281-6.146,25.648,25.648,0,0,1,6.666-3.309,21.382,21.382,0,0,1,6.335-.993,15.276,15.276,0,0,1,8.793,2.5,18.976,18.976,0,0,1,6.052,6.95,35.842,35.842,0,0,1,3.451,10.685,80.177,80.177,0,0,1,1.087,13.71Q770.554,395.655,762.99,404.685Zm58.2,7.517h-31.2v13.71H866.1V412.2H837.827V292.308H793.1v13.521h28.083V412.2Zm84.953,0h-31.2v13.71h76.115V412.2H922.781V330.981H878.057V344.6h28.082V412.2ZM906.8,292.166a12.362,12.362,0,0,0-4.113,2.79,13.421,13.421,0,0,0-2.742,4.113,13.261,13.261,0,0,0,0,10.07,13.248,13.248,0,0,0,2.742,4.16,12.329,12.329,0,0,0,4.113,2.789,13.624,13.624,0,0,0,10.212,0,12.349,12.349,0,0,0,4.113-2.789,13.265,13.265,0,0,0,2.742-4.16,13.261,13.261,0,0,0,0-10.07,13.439,13.439,0,0,0-2.742-4.113,12.382,12.382,0,0,0-4.113-2.79A13.624,13.624,0,0,0,906.8,292.166Zm119.309,118.24a94.518,94.518,0,0,1-11.25,2.222,76.835,76.835,0,0,1-9.93.709q-10.591,0-16.028-5.059t-5.437-15.27V344.785h42.645v-13.8H983.465V300.629l-16.452,4.255v26.1H940.444v13.8h26.569v49.547q0,16.736,8.794,24.82t26.663,8.084a117.956,117.956,0,0,0,12.1-.614,80.5,80.5,0,0,0,11.54-2.033V410.406Z" transform="translate(-277 -249)"/>
    </g>
  </g>
</svg>
